<svg width="144" height="32" viewBox="0 0 144 32" fill="none" xmlns="http://www.w3.org/2000/svg">
<path fill-rule="evenodd" clip-rule="evenodd" d="M31.9244 16.0512C31.9244 24.8454 25.118 32.5003 15.9719 31.9744C6.82586 31.4486 0.444871 26.1408 0.0194464 16.0512C-0.405978 5.96161 6.18773 -1.04452 15.9719 0.128019C26.3199 1.36812 32.7752 7.98346 31.9244 16.0512ZM21.9821 16.388C22.2345 16.1356 22.47 15.868 22.6875 15.5869L24.7125 17.6119L25.3328 16.9916L23.1951 14.8538C23.4304 14.4723 23.6354 14.0717 23.8078 13.6556L23.0297 13.3333C22.6488 14.253 22.0904 15.0886 21.3866 15.7924C20.6827 16.4963 19.8471 17.0546 18.9275 17.4356C18.0079 17.8165 17.0223 18.0126 16.0269 18.0126C15.0315 18.0126 14.0458 17.8165 13.1262 17.4356C12.2066 17.0546 11.371 16.4963 10.6671 15.7924C9.96328 15.0886 9.40496 14.253 9.02403 13.3333C8.63499 13.4945 8.63557 13.4959 8.63557 13.4959C8.63557 13.4959 8.63135 13.4982 8.24594 13.6556C8.41322 14.0595 8.61128 14.4487 8.83794 14.8201L6.66654 16.9916L7.28688 17.6119L9.34256 15.5562C9.5666 15.8485 9.81006 16.1264 10.0716 16.388C10.1897 16.5061 10.3112 16.6206 10.4359 16.7312L8.7725 19.1943L9.49953 19.6853L11.1237 17.2803C11.619 17.6349 12.1523 17.9356 12.7147 18.1761L11.9303 21.1036L12.7777 21.3306L13.5416 18.4797C14.2143 18.6875 14.911 18.8102 15.6152 18.8447V21.7555H16.4925V18.8419C17.154 18.8053 17.8084 18.6907 18.4423 18.501L19.2005 21.3306L20.0479 21.1036L19.2712 18.2048C19.8678 17.9557 20.4324 17.6394 20.9544 17.2628L22.5903 19.6853L23.3174 19.1943L21.6404 16.7111C21.7572 16.6067 21.8711 16.499 21.9821 16.388Z" fill="#79A1DC"/>
<path d="M68.9832 4.25507C67.6407 4.93524 67.3722 6.77738 68.4603 7.78347C69.6474 8.88875 71.4845 8.39279 71.9508 6.83406C72.3748 5.41703 71.2725 4 69.7463 4C69.5908 4 69.2517 4.11336 68.9832 4.25507Z" fill="#79A1DC"/>
<path d="M98.4193 4.19838C97.8964 4.42511 97.4442 4.97775 97.2322 5.64375C96.6387 7.41504 98.815 9.11547 100.341 8.06687C101.118 7.54257 101.401 7.04661 101.401 6.19639C101.401 5.27533 101.076 4.77937 100.2 4.31175C99.4933 3.95749 99.0552 3.92915 98.4193 4.19838Z" fill="#79A1DC"/>
<path d="M135.84 6.11137C135.91 5.20447 136.278 4.58098 136.97 4.22672C137.55 3.92915 138.525 4 139.048 4.3826C140.051 5.13362 140.291 6.15388 139.74 7.25917C138.991 8.70454 137.069 8.77539 136.122 7.3867C135.84 6.98993 135.797 6.76321 135.84 6.11137Z" fill="#79A1DC"/>
<path d="M45.5812 13.6783C44.6203 14.0042 44.055 14.3585 43.4332 15.0245L42.8256 15.6622V13.7775H39.9992V27.6644H42.8114L42.8538 23.2999C42.8888 19.7062 42.8949 19.0812 43.1032 18.5331C43.147 18.4177 43.1998 18.3058 43.2636 18.1703C43.6735 17.2917 44.3235 16.5974 45.0725 16.2431C45.7225 15.9314 46.9944 15.9314 47.5738 16.229C48.1956 16.5407 48.8598 17.3626 49.0293 17.9861C49.1283 18.312 49.1848 20.3383 49.1848 23.0874V27.6644H51.997L52.0394 23.2999C52.0818 19.2331 52.0959 18.9071 52.3785 18.2978C53.0568 16.8383 54.1874 16.0164 55.544 16.0022C56.5756 16.0022 57.3105 16.3565 57.8757 17.1642L58.2997 17.7735L58.3845 21.1886C58.441 23.0732 58.5399 24.8162 58.6106 25.0429C58.9921 26.1907 59.5998 26.9984 60.5042 27.5794C61.3945 28.1462 63.4436 28.1037 64.6024 27.5085L65.1535 27.2393V24.7028L64.56 25.0429C63.5566 25.6239 62.2848 25.4397 61.663 24.6319C61.3945 24.2919 61.3662 24.0226 61.2956 21.1177C61.2108 17.2351 61.0553 16.5832 59.9672 15.237C58.0029 12.7856 53.5514 12.9981 51.8557 15.6196L51.4034 16.314L51.0219 15.7188C50.1033 14.3018 48.9587 13.6358 47.2205 13.5508C46.5563 13.5224 45.9345 13.5649 45.5812 13.6783Z" fill="#79A1DC"/>
<path d="M81.8995 15.0953C82.493 14.3868 83.2137 13.9192 84.0899 13.6783C84.9378 13.4374 86.5064 13.5366 87.4814 13.905C88.4 14.2451 89.1066 14.7978 89.6577 15.6055C90.4208 16.7108 90.5056 17.1217 90.5904 20.7209C90.6469 23.6967 90.6893 24.0935 90.9437 24.5044C91.4948 25.4255 92.7525 25.6522 93.8972 25.0429L94.5472 24.7028V25.9498C94.5472 27.0976 94.519 27.2251 94.2364 27.4093C93.3743 27.9761 91.7351 28.1462 90.548 27.8203C89.6436 27.5652 88.5978 26.6158 88.1739 25.6522C87.8771 24.9579 87.8489 24.6603 87.7782 21.4295C87.6934 17.9577 87.6934 17.9577 87.3119 17.2917C86.789 16.4273 86.1107 16.0022 85.178 16.0022C84.7682 15.9881 84.1888 16.0731 83.892 16.1723C83.1148 16.4415 82.2104 17.3342 81.8147 18.2128C81.4896 18.9213 81.4755 19.0772 81.4331 23.2999L81.3907 27.6644H78.5785V13.7775H81.4049V15.6763L81.8995 15.0953Z" fill="#79A1DC"/>
<path d="M113.385 13.7492C112.424 14.0892 111.562 14.6986 111.138 15.3221L110.799 15.8322V13.7775H107.972V27.6644H110.784L110.827 23.2999C110.869 19.063 110.883 18.9355 111.208 18.1986C111.689 17.15 112.706 16.2431 113.667 16.0589C114.967 15.7897 116.126 16.2856 116.734 17.3484L117.087 17.9577L117.172 27.6644H119.984V23.6542C119.984 19.2472 120.041 18.7938 120.818 17.5751C122.16 15.4638 125.156 15.4638 126.103 17.5893C126.358 18.1703 126.4 18.6379 126.485 21.7129L126.486 21.7844C126.57 25.101 126.572 25.2037 126.937 25.8931C127.304 26.6158 127.799 27.1543 128.477 27.5794C129.368 28.1462 131.417 28.1037 132.575 27.5085L133.127 27.2393V24.7028L132.533 25.0429C131.53 25.6239 130.258 25.4397 129.636 24.6319C129.368 24.306 129.339 24.0226 129.269 21.0469C129.212 18.3262 129.156 17.6885 128.929 16.9942C128.209 14.9395 126.668 13.7208 124.549 13.5366C122.5 13.3666 120.45 14.3727 119.603 15.9597L119.391 16.3848L119.179 15.9597C118.811 15.2654 117.709 14.231 116.974 13.905C115.957 13.4799 114.346 13.4091 113.385 13.7492Z" fill="#79A1DC"/>
<path d="M69.5484 26.7291C68.5875 25.6239 68.5451 25.3546 68.5451 19.2047V13.7633L71.3007 13.8484L71.3714 19.0205C71.4279 22.7756 71.4845 24.2777 71.6116 24.5044C72.1628 25.4396 73.3357 25.6664 74.5228 25.0571L75.1869 24.7311V25.964C75.1869 27.3526 75.1587 27.3951 74.1836 27.7352C72.5585 28.3304 70.5659 27.8911 69.5484 26.7291Z" fill="#79A1DC"/>
<path d="M97.8964 13.8625C97.741 14.0184 97.7834 23.3566 97.9388 24.4761C98.2639 26.7291 99.8325 28.047 102.079 27.9761C102.956 27.962 103.733 27.7494 104.27 27.4093C104.552 27.2251 104.581 27.0976 104.581 25.9498V24.7028L103.931 25.0429C102.828 25.638 101.585 25.4538 101.034 24.6319C100.878 24.391 100.822 23.2858 100.765 19.0914L100.695 13.8484L99.352 13.8058C98.603 13.7917 97.953 13.8058 97.8964 13.8625Z" fill="#79A1DC"/>
<path d="M136.97 25.8931L136.589 25.1846L136.504 13.7633L139.274 13.8484L139.344 19.0205C139.401 22.7756 139.458 24.2777 139.585 24.5044C140.136 25.4396 141.309 25.6664 142.496 25.0571L143.16 24.7311V25.964C143.16 26.8283 143.103 27.2534 142.976 27.3668C142.581 27.6927 141.492 27.962 140.546 27.9761C138.878 28.0045 137.719 27.3243 136.97 25.8931Z" fill="#79A1DC"/>
</svg>
